<?xml version="1.0" encoding="utf-8"?>
<!-- Generator: Adobe Illustrator 23.0.0, SVG Export Plug-In . SVG Version: 6.00 Build 0)  -->
<svg version="1.1" id="Capa_1" xmlns="http://www.w3.org/2000/svg" xmlns:xlink="http://www.w3.org/1999/xlink" x="0px" y="0px"
	 viewBox="0 0 512 512" style="enable-background:new 0 0 512 512;" xml:space="preserve">
<style type="text/css">
	.st0{fill:url(#SVGID_1_);stroke:#4C070E;stroke-miterlimit:10;}
	.st1{fill:none;}
	.st2{fill:url(#SVGID_2_);stroke:#4C070E;stroke-miterlimit:10;}
	.st3{fill:#BF0050;}
	.st4{font-family:'FrenchScriptMT';}
	.st5{font-size:50.9512px;}
</style>
<g>
	
		<linearGradient id="SVGID_1_" gradientUnits="userSpaceOnUse" x1="57.2543" y1="859.6841" x2="508.6494" y2="859.6841" gradientTransform="matrix(1 0 0 1 0 -619.8583)">
		<stop  offset="0" style="stop-color:#80D8FF"/>
		<stop  offset="1" style="stop-color:#EA80FC"/>
	</linearGradient>
	<path class="st0" d="M498.5,361.3L300.6,242.4v-28.8c37.7-10.5,66.1-53.8,66.1-105.6c0-59.5-37.6-108-83.8-108s-83.8,48.4-83.8,108
		c0,12.6,7.9,22.7,17.6,22.7c9.7,0,17.6-10.2,17.6-22.7c0-34.5,21.8-62.5,48.5-62.5c26.7,0,48.5,28,48.5,62.5
		c0,34.5-21.8,62.5-48.5,62.5c-9.7,0-17.6,10.2-17.6,22.7v49.2L67.4,361.3c-6.2,3.7-10.2,11.8-10.2,20.6v75
		c0,12.6,7.9,22.7,17.6,22.7h17.8c0-0.6,0-1.2,0.1-1.7c0-0.4,0-0.9,0.1-1.3c-0.1-0.8-0.1-1.7,0-2.5c0-0.4,0-0.9,0-1.3
		c-0.1-0.5-0.1-0.9-0.1-1.4c-0.2-0.9-0.2-1.9,0-2.9c-0.1-0.7,0-1.4,0.1-2.1c0-0.1,0-0.2,0-0.4c-0.1-0.7,0-1.5,0.1-2.2c0,0,0,0,0,0
		c-0.1-0.6-0.2-1.3-0.1-1.9c-0.1-0.6-0.1-1.2,0-1.8c0-0.1,0-0.1,0-0.2c-0.2-0.9-0.2-1.9,0-2.9c-0.1-0.7-0.1-1.4,0-2.1
		c0-0.7,0-1.5,0.1-2.2c-0.2-1-0.2-2.1,0-3.2c0-0.3,0-0.7,0-1c0-0.5,0-0.9,0-1.4c0-0.4,0-0.8,0-1.2c-0.1-0.8-0.1-1.6,0-2.3
		c0-0.4,0-0.8,0-1.2c-0.1-0.9-0.1-1.9,0-2.8c0-0.2,0-0.5,0-0.7c0-0.9,0-1.8,0.2-2.6c0-0.3,0-0.5,0-0.8c0-0.4,0-0.7,0-1.1h-0.4v-37.8
		L283,282l190.4,114.4v37.8h-0.2c0,0.1,0,0.2,0,0.2c0.5,1.3,0.5,2.9,0,4.5c0,0.1,0,0.2,0,0.2c0.1,1.2-0.1,2.2-0.4,3.2
		c0.1,0.6,0.1,1.3,0,1.9c0.6,1.7,0.6,3.6,0.2,5.3c0.2,1.2,0.1,2.4-0.2,3.5c0,0.2,0.1,0.4,0.1,0.5c0.2,1.8,0.1,3.4-0.1,5.1
		c0,0.3,0,0.6,0,0.9c0,0.7-0.1,1.3-0.3,1.9c0.1,0.6,0.1,1.2,0.1,1.8c0.3,1.3,0.4,2.7,0.3,4.2c0,0.2-0.1,0.5-0.1,0.7
		c0.1,0.8,0.2,1.7,0.2,2.6c0,1.2-0.1,2.5-0.2,3.7c0.1,1.7,0.1,3.4,0.1,5.1H491c9.7,0,17.6-10.2,17.6-22.7v-75
		C508.6,373.1,504.7,365,498.5,361.3z"/>
	<line class="st1" x1="92.5" y1="434.2" x2="92.5" y2="479.7"/>
	<path class="st1" d="M473.4,439.5c0,13.4,0,26.8,0,40.1"/>
	<line class="st1" x1="92.5" y1="434.2" x2="92.5" y2="479.7"/>
	<line class="st1" x1="-0.8" y1="305" x2="-5.3" y2="285"/>
	<linearGradient id="SVGID_2_" gradientUnits="userSpaceOnUse" x1="92.5196" y1="434.1871" x2="92.5196" y2="434.1871">
		<stop  offset="0" style="stop-color:#80D8FF"/>
		<stop  offset="1" style="stop-color:#EA80FC"/>
	</linearGradient>
	<path class="st2" d="M92.5,434.2"/>
	<text transform="matrix(1.1762 7.736683e-03 -3.958261e-03 1 132.2332 434.1879)"><tspan x="0" y="0" class="st3 st4 st5">Miss Elegent  </tspan><tspan x="0" y="37.3" class="st3 st4 st5">    Boutique </tspan></text>
	<path class="st3" d="M279.9,290.5c-1-6.1-3.2-10.2-5.8-13.4c-2.1-2.7-4.3-5.1-6.5-7.7c-2.7-3.2-5.2-6.8-7.2-11.7
		c-2.1-5.1-3.3-10.8-3.1-17.3c0.5-18.2,9.4-26,16-21.3c3.2,2.3,5.3,6.8,6.8,12.5c0.8,3.1,1.3,6.5,1.6,10c0.1,0.9,0.2,1.4,0.7,1.4
		c0.5,0,1-0.7,1-1.7c0-0.9-0.1-1.9,0-2.8c0-1,0-2.1,0.2-3c1.5-7.3,3.7-13.5,7.3-17.5c1.7-1.9,3.5-3.1,5.5-3.4
		c3.8-0.7,6.7,2.4,8.8,8.4c2.1,5.9,2.9,12.6,2.9,19.7c-0.1,10.6-2.5,18.8-6.8,25.2c-2.9,4.4-6.3,7.6-9.6,10.8
		c-3.2,3.1-6.4,6.2-9.5,9.4C281.3,288.7,280.7,289.6,279.9,290.5z"/>
</g>
</svg>
